<mxfile host="drawio-plugin" modified="2023-01-22T23:59:04.480Z" agent="5.0 (Windows NT 6.2; Win64; x64) AppleWebKit/537.36 (KHTML, like Gecko) Chrome/97.0.4692.45 Safari/537.36" version="20.5.3" etag="MNpcAR-s5aZgTxpSs82x" type="embed"><diagram id="2sgKwlB2meRE35loHV_G" name="Page-1"><mxGraphModel dx="1904" dy="889" grid="1" gridSize="10" guides="1" tooltips="1" connect="1" arrows="1" fold="1" page="0" pageScale="1" pageWidth="850" pageHeight="1100" background="none" math="0" shadow="0"><root><mxCell id="0"/><mxCell id="1" parent="0"/><mxCell id="9" value="«Logic»&lt;br&gt;&lt;b&gt;Component&lt;/b&gt;" style="html=1;dropTarget=0;shadow=1;labelBackgroundColor=none;labelBorderColor=none;fontSize=11;fontColor=default;labelPosition=center;verticalLabelPosition=top;align=center;verticalAlign=bottom;rounded=0;sketch=1;" vertex="1" parent="1"><mxGeometry x="93" y="-140" width="590" height="1070" as="geometry"/></mxCell><mxCell id="10" value="" style="shape=module;jettyWidth=8;jettyHeight=4;shadow=0;labelBackgroundColor=none;labelBorderColor=none;fontSize=11;fontColor=default;html=1;" vertex="1" parent="9"><mxGeometry x="1" width="20" height="20" relative="1" as="geometry"><mxPoint x="-27" y="7" as="offset"/></mxGeometry></mxCell><mxCell id="7" value="«Storage»&lt;br&gt;&lt;b&gt;Component&lt;/b&gt;" style="html=1;dropTarget=0;shadow=1;labelBackgroundColor=none;labelBorderColor=none;fontSize=11;fontColor=default;labelPosition=left;verticalLabelPosition=middle;align=right;verticalAlign=middle;rounded=0;sketch=1;" vertex="1" parent="1"><mxGeometry x="-430" y="970" width="1110" height="340" as="geometry"/></mxCell><mxCell id="8" value="" style="shape=module;jettyWidth=8;jettyHeight=4;shadow=0;labelBackgroundColor=none;labelBorderColor=none;fontSize=11;fontColor=default;html=1;" vertex="1" parent="7"><mxGeometry x="1" width="20" height="20" relative="1" as="geometry"><mxPoint x="-27" y="7" as="offset"/></mxGeometry></mxCell><object label="«View»&lt;br&gt;Component" id="4"><mxCell style="dropTarget=0;fontSize=11;spacingTop=0;spacingBottom=0;labelPosition=center;verticalLabelPosition=top;align=center;verticalAlign=bottom;spacing=0;fontColor=default;whiteSpace=wrap;labelBorderColor=none;labelBackgroundColor=none;html=1;shadow=1;rounded=0;sketch=0;glass=0;" vertex="1" parent="1"><mxGeometry x="-820" y="-140" width="830" height="1070" as="geometry"/></mxCell></object><mxCell id="5" value="" style="shape=module;jettyWidth=8;jettyHeight=4;fontSize=11;shadow=0;" vertex="1" parent="4"><mxGeometry x="1" width="20" height="20" relative="1" as="geometry"><mxPoint x="-27" y="7" as="offset"/></mxGeometry></mxCell><mxCell id="node9" value="&lt;p style=&quot;margin: 4px 0px 0px; text-align: center; font-size: 11px;&quot;&gt;&lt;b style=&quot;font-size: 11px;&quot;&gt;ButtonCreateModel&lt;/b&gt;&lt;/p&gt;&lt;hr style=&quot;font-size: 11px;&quot;&gt;&lt;p style=&quot;margin: 0px 0px 0px 4px; line-height: 1.6; font-size: 11px;&quot;&gt;+ ButtonCreateModel(): &lt;/p&gt;&lt;hr style=&quot;font-size: 11px;&quot;&gt;&lt;p style=&quot;margin: 0px 0px 0px 4px; line-height: 1.6; font-size: 11px;&quot;&gt;+ onClick(MainWindow): void&lt;/p&gt;" style="verticalAlign=top;align=left;overflow=fill;fontSize=11;fontFamily=Helvetica;html=1;rounded=0;shadow=1;comic=0;labelBackgroundColor=none;strokeWidth=1;" parent="1" vertex="1"><mxGeometry x="-750" y="-96" width="195" height="83" as="geometry"/></mxCell><mxCell id="node4" value="&lt;p style=&quot;margin: 4px 0px 0px; text-align: center; font-size: 11px;&quot;&gt;&lt;b style=&quot;font-size: 11px;&quot;&gt;ButtonEditModel&lt;/b&gt;&lt;/p&gt;&lt;hr style=&quot;font-size: 11px;&quot;&gt;&lt;p style=&quot;margin: 0px 0px 0px 4px; line-height: 1.6; font-size: 11px;&quot;&gt;+ ButtonEditModel(): &lt;/p&gt;&lt;hr style=&quot;font-size: 11px;&quot;&gt;&lt;p style=&quot;margin: 0px 0px 0px 4px; line-height: 1.6; font-size: 11px;&quot;&gt;+ onClick(MainWindow): void&lt;/p&gt;" style="verticalAlign=top;align=left;overflow=fill;fontSize=11;fontFamily=Helvetica;html=1;rounded=0;shadow=1;comic=0;labelBackgroundColor=none;strokeWidth=1;" parent="1" vertex="1"><mxGeometry x="-759" y="193" width="195" height="83" as="geometry"/></mxCell><mxCell id="node5" value="&lt;p style=&quot;margin: 4px 0px 0px; text-align: center; font-size: 11px;&quot;&gt;&lt;b style=&quot;font-size: 11px;&quot;&gt;ButtonLoadModel&lt;/b&gt;&lt;/p&gt;&lt;hr style=&quot;font-size: 11px;&quot;&gt;&lt;p style=&quot;margin: 0px 0px 0px 4px; line-height: 1.6; font-size: 11px;&quot;&gt;+ ButtonLoadModel(): &lt;/p&gt;&lt;hr style=&quot;font-size: 11px;&quot;&gt;&lt;p style=&quot;margin: 0px 0px 0px 4px; line-height: 1.6; font-size: 11px;&quot;&gt;+ onClick(String, MainWindow): void&lt;/p&gt;" style="verticalAlign=top;align=left;overflow=fill;fontSize=11;fontFamily=Helvetica;html=1;rounded=0;shadow=1;comic=0;labelBackgroundColor=none;strokeWidth=1;" parent="1" vertex="1"><mxGeometry x="-750" y="48" width="232" height="83" as="geometry"/></mxCell><mxCell id="node16" value="&lt;p style=&quot;margin: 4px 0px 0px; text-align: center; font-size: 11px;&quot;&gt;&lt;b style=&quot;font-size: 11px;&quot;&gt;ButtonSaveConvertedModel&lt;/b&gt;&lt;/p&gt;&lt;hr style=&quot;font-size: 11px;&quot;&gt;&lt;p style=&quot;margin: 0px 0px 0px 4px; line-height: 1.6; font-size: 11px;&quot;&gt;+ ButtonSaveConvertedModel(): &lt;/p&gt;&lt;hr style=&quot;font-size: 11px;&quot;&gt;&lt;p style=&quot;margin: 0px 0px 0px 4px; line-height: 1.6; font-size: 11px;&quot;&gt;+ onClick(String, MainWindow): void&lt;/p&gt;" style="verticalAlign=top;align=left;overflow=fill;fontSize=11;fontFamily=Helvetica;html=1;rounded=0;shadow=1;comic=0;labelBackgroundColor=none;strokeWidth=1;" parent="1" vertex="1"><mxGeometry x="-759" y="481" width="232" height="83" as="geometry"/></mxCell><mxCell id="node1" value="&lt;p style=&quot;margin: 4px 0px 0px; text-align: center; font-size: 11px;&quot;&gt;&lt;b style=&quot;font-size: 11px;&quot;&gt;ButtonSaveModel&lt;/b&gt;&lt;/p&gt;&lt;hr style=&quot;font-size: 11px;&quot;&gt;&lt;p style=&quot;margin: 0px 0px 0px 4px; line-height: 1.6; font-size: 11px;&quot;&gt;+ ButtonSaveModel(): &lt;/p&gt;&lt;hr style=&quot;font-size: 11px;&quot;&gt;&lt;p style=&quot;margin: 0px 0px 0px 4px; line-height: 1.6; font-size: 11px;&quot;&gt;+ onClick(String, MainWindow): void&lt;/p&gt;" style="verticalAlign=top;align=left;overflow=fill;fontSize=11;fontFamily=Helvetica;html=1;rounded=0;shadow=1;comic=0;labelBackgroundColor=none;strokeWidth=1;" parent="1" vertex="1"><mxGeometry x="-759" y="337" width="232" height="83" as="geometry"/></mxCell><mxCell id="node13" value="&lt;p style=&quot;margin: 4px 0px 0px; text-align: center; font-size: 11px;&quot;&gt;&lt;b style=&quot;font-size: 11px;&quot;&gt;ConvertedModel&lt;/b&gt;&lt;/p&gt;&lt;hr style=&quot;font-size: 11px;&quot;&gt;&lt;p style=&quot;margin: 0px 0px 0px 4px; line-height: 1.6; font-size: 11px;&quot;&gt;+ ConvertedModel(): &lt;/p&gt;&lt;hr style=&quot;font-size: 11px;&quot;&gt;&lt;p style=&quot;margin: 0px 0px 0px 4px; line-height: 1.6; font-size: 11px;&quot;&gt;+ nameOrigModel: String&lt;/p&gt;&lt;hr style=&quot;font-size: 11px;&quot;&gt;&lt;p style=&quot;margin: 0px 0px 0px 4px; line-height: 1.6; font-size: 11px;&quot;&gt;+ toString(): String&lt;/p&gt;" style="verticalAlign=top;align=left;overflow=fill;fontSize=11;fontFamily=Helvetica;html=1;rounded=0;shadow=1;comic=0;labelBackgroundColor=none;strokeWidth=1;" parent="1" vertex="1"><mxGeometry x="302" y="1102" width="172" height="108" as="geometry"/></mxCell><mxCell id="node15" value="&lt;p style=&quot;margin: 4px 0px 0px; text-align: center; font-size: 11px;&quot;&gt;&lt;b style=&quot;font-size: 11px;&quot;&gt;Converter&lt;/b&gt;&lt;/p&gt;&lt;hr style=&quot;font-size: 11px;&quot;&gt;&lt;p style=&quot;margin: 0px 0px 0px 4px; line-height: 1.6; font-size: 11px;&quot;&gt;+ Converter(): &lt;/p&gt;&lt;hr style=&quot;font-size: 11px;&quot;&gt;&lt;p style=&quot;margin: 0px 0px 0px 4px; line-height: 1.6; font-size: 11px;&quot;&gt;+ getConvertedModelForSave(Model3D): ConvertedModel&lt;br style=&quot;font-size: 11px;&quot;&gt;- convert(Model3D): ConvertedModel&lt;/p&gt;" style="verticalAlign=top;align=left;overflow=fill;fontSize=11;fontFamily=Helvetica;html=1;rounded=0;shadow=1;comic=0;labelBackgroundColor=none;strokeWidth=1;" parent="1" vertex="1"><mxGeometry x="253" y="708" width="349" height="107" as="geometry"/></mxCell><mxCell id="node6" value="&lt;p style=&quot;margin: 4px 0px 0px; text-align: center; font-size: 11px;&quot;&gt;&lt;b style=&quot;font-size: 11px;&quot;&gt;EditModel&lt;/b&gt;&lt;/p&gt;&lt;hr style=&quot;font-size: 11px;&quot;&gt;&lt;p style=&quot;margin: 0px 0px 0px 4px; line-height: 1.6; font-size: 11px;&quot;&gt;+ EditModel(): &lt;/p&gt;&lt;hr style=&quot;font-size: 11px;&quot;&gt;&lt;p style=&quot;margin: 0px 0px 0px 4px; line-height: 1.6; font-size: 11px;&quot;&gt;~ render: Render&lt;br style=&quot;font-size: 11px;&quot;&gt;- model3D: Model3D&lt;/p&gt;&lt;hr style=&quot;font-size: 11px;&quot;&gt;&lt;p style=&quot;margin: 0px 0px 0px 4px; line-height: 1.6; font-size: 11px;&quot;&gt;+ createModel(): void&lt;br style=&quot;font-size: 11px;&quot;&gt;+ createModel(Model3D): void&lt;br style=&quot;font-size: 11px;&quot;&gt;+ editCommand(String): Screen&lt;br style=&quot;font-size: 11px;&quot;&gt;+ render(): Screen&lt;br style=&quot;font-size: 11px;&quot;&gt;+ getModel(): Model3D&lt;/p&gt;" style="verticalAlign=top;align=left;overflow=fill;fontSize=11;fontFamily=Helvetica;html=1;rounded=0;shadow=1;comic=0;labelBackgroundColor=none;strokeWidth=1;" parent="1" vertex="1"><mxGeometry x="397" y="250" width="205" height="210" as="geometry"/></mxCell><mxCell id="node10" value="&lt;p style=&quot;margin: 4px 0px 0px; text-align: center; font-size: 11px;&quot;&gt;&lt;b style=&quot;font-size: 11px;&quot;&gt;FrameEditModel&lt;/b&gt;&lt;/p&gt;&lt;hr style=&quot;font-size: 11px;&quot;&gt;&lt;p style=&quot;margin: 0px 0px 0px 4px; line-height: 1.6; font-size: 11px;&quot;&gt;+ FrameEditModel(): &lt;/p&gt;&lt;hr style=&quot;font-size: 11px;&quot;&gt;&lt;p style=&quot;margin: 0px 0px 0px 4px; line-height: 1.6; font-size: 11px;&quot;&gt;~ draw(Screen): void&lt;/p&gt;" style="verticalAlign=top;align=left;overflow=fill;fontSize=11;fontFamily=Helvetica;html=1;rounded=0;shadow=1;comic=0;labelBackgroundColor=none;strokeWidth=1;" parent="1" vertex="1"><mxGeometry x="-759" y="625" width="156" height="83" as="geometry"/></mxCell><mxCell id="node17" value="&lt;p style=&quot;margin: 4px 0px 0px; text-align: center; font-size: 11px;&quot;&gt;&lt;b style=&quot;font-size: 11px;&quot;&gt;FrameViewModel&lt;/b&gt;&lt;/p&gt;&lt;hr style=&quot;font-size: 11px;&quot;&gt;&lt;p style=&quot;margin: 0px 0px 0px 4px; line-height: 1.6; font-size: 11px;&quot;&gt;+ FrameViewModel(): &lt;/p&gt;&lt;hr style=&quot;font-size: 11px;&quot;&gt;&lt;p style=&quot;margin: 0px 0px 0px 4px; line-height: 1.6; font-size: 11px;&quot;&gt;~ draw(Screen): void&lt;/p&gt;" style="verticalAlign=top;align=left;overflow=fill;fontSize=11;fontFamily=Helvetica;html=1;rounded=0;shadow=1;comic=0;labelBackgroundColor=none;strokeWidth=1;" parent="1" vertex="1"><mxGeometry x="-759" y="769" width="162" height="83" as="geometry"/></mxCell><mxCell id="node7" value="&lt;p style=&quot;margin: 4px 0px 0px; text-align: center; font-size: 11px;&quot;&gt;&lt;b style=&quot;font-size: 11px;&quot;&gt;MainWindow&lt;/b&gt;&lt;/p&gt;&lt;hr style=&quot;font-size: 11px;&quot;&gt;&lt;p style=&quot;margin: 0px 0px 0px 4px; line-height: 1.6; font-size: 11px;&quot;&gt;+ MainWindow(): &lt;/p&gt;&lt;hr style=&quot;font-size: 11px;&quot;&gt;&lt;p style=&quot;margin: 0px 0px 0px 4px; line-height: 1.6; font-size: 11px;&quot;&gt;+ buttonSaveModel: ButtonSaveModel&lt;br style=&quot;font-size: 11px;&quot;&gt;+ buttonSaveConvertedModel: ButtonSaveConvertedModel&lt;br style=&quot;font-size: 11px;&quot;&gt;~ editModel: iEditModel&lt;br style=&quot;font-size: 11px;&quot;&gt;~ screen: Screen&lt;br style=&quot;font-size: 11px;&quot;&gt;+ buttonCreateModel: ButtonCreateModel&lt;br style=&quot;font-size: 11px;&quot;&gt;- mainWindow: MainWindow&lt;br style=&quot;font-size: 11px;&quot;&gt;+ buttonEditModel: ButtonEditModel&lt;br style=&quot;font-size: 11px;&quot;&gt;+ frameViewModel: FrameViewModel&lt;br style=&quot;font-size: 11px;&quot;&gt;+ buttonLoadModel: ButtonLoadModel&lt;br style=&quot;font-size: 11px;&quot;&gt;+ storage: iStorage&lt;br style=&quot;font-size: 11px;&quot;&gt;+ frameEditModel: FrameEditModel&lt;/p&gt;&lt;hr style=&quot;font-size: 11px;&quot;&gt;&lt;p style=&quot;margin: 0px 0px 0px 4px; line-height: 1.6; font-size: 11px;&quot;&gt;+ getMainWindow(): MainWindow&lt;/p&gt;" style="verticalAlign=top;align=left;overflow=fill;fontSize=11;fontFamily=Helvetica;html=1;rounded=0;shadow=1;comic=0;labelBackgroundColor=none;strokeWidth=1;" parent="1" vertex="1"><mxGeometry x="-450" y="306" width="350" height="320" as="geometry"/></mxCell><mxCell id="node14" value="&lt;p style=&quot;margin: 4px 0px 0px; text-align: center; font-size: 11px;&quot;&gt;&lt;b style=&quot;font-size: 11px;&quot;&gt;Model3D&lt;/b&gt;&lt;/p&gt;&lt;hr style=&quot;font-size: 11px;&quot;&gt;&lt;p style=&quot;margin: 0px 0px 0px 4px; line-height: 1.6; font-size: 11px;&quot;&gt;+ Model3D(): &lt;/p&gt;&lt;hr style=&quot;font-size: 11px;&quot;&gt;&lt;p style=&quot;margin: 0px 0px 0px 4px; line-height: 1.6; font-size: 11px;&quot;&gt;+ toString(): String&lt;/p&gt;" style="verticalAlign=top;align=left;overflow=fill;fontSize=11;fontFamily=Helvetica;html=1;rounded=0;shadow=1;comic=0;labelBackgroundColor=none;strokeWidth=1;" parent="1" vertex="1"><mxGeometry x="419" y="543" width="136" height="83" as="geometry"/></mxCell><mxCell id="node0" value="&lt;p style=&quot;margin: 4px 0px 0px; text-align: center; font-size: 11px;&quot;&gt;&lt;b style=&quot;font-size: 11px;&quot;&gt;Render&lt;/b&gt;&lt;/p&gt;&lt;hr style=&quot;font-size: 11px;&quot;&gt;&lt;p style=&quot;margin: 0px 0px 0px 4px; line-height: 1.6; font-size: 11px;&quot;&gt;+ Render(): &lt;/p&gt;&lt;hr style=&quot;font-size: 11px;&quot;&gt;&lt;p style=&quot;margin: 0px 0px 0px 4px; line-height: 1.6; font-size: 11px;&quot;&gt;~ rendering(Model3D): Screen&lt;/p&gt;" style="verticalAlign=top;align=left;overflow=fill;fontSize=11;fontFamily=Helvetica;html=1;rounded=0;shadow=1;comic=0;labelBackgroundColor=none;strokeWidth=1;" parent="1" vertex="1"><mxGeometry x="264" y="3" width="199" height="83" as="geometry"/></mxCell><mxCell id="node8" value="&lt;p style=&quot;margin: 4px 0px 0px; text-align: center; font-size: 11px;&quot;&gt;&lt;b style=&quot;font-size: 11px;&quot;&gt;Screen&lt;/b&gt;&lt;/p&gt;&lt;hr style=&quot;font-size: 11px;&quot;&gt;&lt;p style=&quot;margin: 0px 0px 0px 4px; line-height: 1.6; font-size: 11px;&quot;&gt;+ Screen(): &lt;/p&gt;&lt;hr style=&quot;font-size: 11px;&quot;&gt;&lt;p style=&quot;margin: 0px 0px 0px 4px; line-height: 1.6; font-size: 11px;&quot;&gt;+ condition: String&lt;/p&gt;&lt;hr style=&quot;font-size: 11px;&quot;&gt;&lt;p style=&quot;margin: 0px 0px 0px 4px; line-height: 1.6; font-size: 11px;&quot;&gt;+ toString(): String&lt;/p&gt;" style="verticalAlign=top;align=left;overflow=fill;fontSize=11;fontFamily=Helvetica;html=1;rounded=0;shadow=1;comic=0;labelBackgroundColor=none;strokeWidth=1;" parent="1" vertex="1"><mxGeometry x="-191" y="-9" width="136" height="108" as="geometry"/></mxCell><mxCell id="node3" value="&lt;p style=&quot;margin: 4px 0px 0px; text-align: center; font-size: 11px;&quot;&gt;&lt;b style=&quot;font-size: 11px;&quot;&gt;Storage&lt;/b&gt;&lt;/p&gt;&lt;hr style=&quot;font-size: 11px;&quot;&gt;&lt;p style=&quot;margin: 0px 0px 0px 4px; line-height: 1.6; font-size: 11px;&quot;&gt;+ Storage(): &lt;/p&gt;&lt;hr style=&quot;font-size: 11px;&quot;&gt;&lt;p style=&quot;margin: 0px 0px 0px 4px; line-height: 1.6; font-size: 11px;&quot;&gt;~ convertedModel: ConvertedModel&lt;br style=&quot;font-size: 11px;&quot;&gt;~ converter: iConverter&lt;/p&gt;&lt;hr style=&quot;font-size: 11px;&quot;&gt;&lt;p style=&quot;margin: 0px 0px 0px 4px; line-height: 1.6; font-size: 11px;&quot;&gt;+ loadFromFile(String): Model3D&lt;br style=&quot;font-size: 11px;&quot;&gt;+ saveToFile(String, Model3D, boolean): void&lt;/p&gt;" style="verticalAlign=top;align=left;overflow=fill;fontSize=11;fontFamily=Helvetica;html=1;rounded=0;shadow=1;comic=0;labelBackgroundColor=none;strokeWidth=1;" parent="1" vertex="1"><mxGeometry x="-373" y="1123" width="279" height="144" as="geometry"/></mxCell><mxCell id="node12" value="&lt;p style=&quot;margin: 4px 0px 0px; text-align: center; font-size: 11px;&quot;&gt;&lt;i style=&quot;font-size: 11px;&quot;&gt;&amp;lt;&amp;lt;interface&amp;gt;&amp;gt;&lt;/i&gt;&lt;br style=&quot;font-size: 11px;&quot;&gt;&lt;b style=&quot;font-size: 11px;&quot;&gt;iConverter&lt;/b&gt;&lt;/p&gt;&lt;hr style=&quot;font-size: 11px;&quot;&gt;&lt;p style=&quot;margin: 0px 0px 0px 4px; line-height: 1.6; font-size: 11px;&quot;&gt;+ getConvertedModelForSave(Model3D): ConvertedModel&lt;/p&gt;" style="verticalAlign=top;align=left;overflow=fill;fontSize=11;fontFamily=Helvetica;html=1;rounded=0;shadow=1;comic=0;labelBackgroundColor=none;strokeWidth=1;" parent="1" vertex="1"><mxGeometry x="213.5" y="862" width="349" height="68" as="geometry"/></mxCell><mxCell id="node2" value="&lt;p style=&quot;margin: 4px 0px 0px; text-align: center; font-size: 11px;&quot;&gt;&lt;i style=&quot;font-size: 11px;&quot;&gt;&amp;lt;&amp;lt;interface&amp;gt;&amp;gt;&lt;/i&gt;&lt;br style=&quot;font-size: 11px;&quot;&gt;&lt;b style=&quot;font-size: 11px;&quot;&gt;iEditModel&lt;/b&gt;&lt;/p&gt;&lt;hr style=&quot;font-size: 11px;&quot;&gt;&lt;p style=&quot;margin: 0px 0px 0px 4px; line-height: 1.6; font-size: 11px;&quot;&gt;+ editCommand(String): Screen&lt;br style=&quot;font-size: 11px;&quot;&gt;+ render(): Screen&lt;br style=&quot;font-size: 11px;&quot;&gt;+ createModel(): void&lt;br style=&quot;font-size: 11px;&quot;&gt;+ createModel(Model3D): void&lt;br style=&quot;font-size: 11px;&quot;&gt;+ getModel(): Model3D&lt;/p&gt;" style="verticalAlign=top;align=left;overflow=fill;fontSize=11;fontFamily=Helvetica;html=1;rounded=0;shadow=1;comic=0;labelBackgroundColor=none;strokeWidth=1;" parent="1" vertex="1"><mxGeometry x="93" y="360" width="205" height="142" as="geometry"/></mxCell><mxCell id="node11" value="&lt;p style=&quot;margin: 4px 0px 0px; text-align: center; font-size: 11px;&quot;&gt;&lt;i style=&quot;font-size: 11px;&quot;&gt;&amp;lt;&amp;lt;interface&amp;gt;&amp;gt;&lt;/i&gt;&lt;br style=&quot;font-size: 11px;&quot;&gt;&lt;b style=&quot;font-size: 11px;&quot;&gt;iStorage&lt;/b&gt;&lt;/p&gt;&lt;hr style=&quot;font-size: 11px;&quot;&gt;&lt;p style=&quot;margin: 0px 0px 0px 4px; line-height: 1.6; font-size: 11px;&quot;&gt;+ loadFromFile(String): Model3D&lt;br style=&quot;font-size: 11px;&quot;&gt;+ saveToFile(String, Model3D, boolean): void&lt;/p&gt;" style="verticalAlign=top;align=left;overflow=fill;fontSize=11;fontFamily=Helvetica;html=1;rounded=0;shadow=1;comic=0;labelBackgroundColor=none;strokeWidth=1;" parent="1" vertex="1"><mxGeometry x="-374" y="970" width="279" height="95" as="geometry"/></mxCell><mxCell id="edge9" value="" style="html=1;rounded=1;edgeStyle=orthogonalEdgeStyle;dashed=1;startArrow=none;endArrow=openThin;endSize=12;strokeColor=#595959;fontSize=11;" parent="1" target="node13" edge="1"><mxGeometry width="50" height="50" relative="1" as="geometry"><Array as="points"><mxPoint x="591" y="834"/><mxPoint x="590" y="834"/><mxPoint x="590" y="1150"/></Array><mxPoint x="590" y="820" as="sourcePoint"/></mxGeometry></mxCell><mxCell id="label56" value="«create»" style="edgeLabel;resizable=0;html=1;align=left;verticalAlign=top;strokeColor=default;fontSize=11;" parent="edge9" vertex="1" connectable="0"><mxGeometry x="510" y="1123" as="geometry"/></mxCell><mxCell id="edge1" value="" style="html=1;rounded=1;edgeStyle=orthogonalEdgeStyle;dashed=1;startArrow=none;endArrow=block;endSize=12;strokeColor=#008200;exitX=0.385;exitY=1.028;exitDx=0;exitDy=0;entryX=0.500;entryY=0.001;entryDx=0;entryDy=0;fontSize=11;exitPerimeter=0;" parent="1" source="node15" target="node12" edge="1"><mxGeometry width="50" height="50" relative="1" as="geometry"><Array as="points"/></mxGeometry></mxCell><mxCell id="edge7" value="" style="html=1;rounded=1;edgeStyle=orthogonalEdgeStyle;dashed=1;startArrow=none;endArrow=openThin;endSize=12;strokeColor=#595959;exitX=0.500;exitY=1.000;exitDx=0;exitDy=0;fontSize=11;entryX=0.596;entryY=0.007;entryDx=0;entryDy=0;entryPerimeter=0;" parent="1" source="node6" target="node14" edge="1"><mxGeometry width="50" height="50" relative="1" as="geometry"><Array as="points"><mxPoint x="500" y="520"/><mxPoint x="500" y="520"/></Array><mxPoint x="490" y="540" as="targetPoint"/></mxGeometry></mxCell><mxCell id="label44" value="«create»" style="edgeLabel;resizable=0;html=1;align=left;verticalAlign=top;strokeColor=default;fontSize=11;" parent="edge7" vertex="1" connectable="0"><mxGeometry x="60" y="1170" as="geometry"/></mxCell><mxCell id="edge11" value="" style="html=1;rounded=1;edgeStyle=orthogonalEdgeStyle;dashed=0;startArrow=diamondThin;endArrow=openThin;endSize=12;strokeColor=#595959;fontSize=11;exitX=0.25;exitY=1;exitDx=0;exitDy=0;entryX=0.22;entryY=-0.003;entryDx=0;entryDy=0;entryPerimeter=0;startFill=1;" parent="1" source="node6" target="node14" edge="1"><mxGeometry width="50" height="50" relative="1" as="geometry"><Array as="points"><mxPoint x="448" y="500"/><mxPoint x="449" y="500"/></Array><mxPoint x="390" y="513" as="sourcePoint"/><mxPoint x="560" y="540" as="targetPoint"/></mxGeometry></mxCell><mxCell id="label66" value="1" style="edgeLabel;resizable=0;html=1;align=left;verticalAlign=top;strokeColor=default;fontSize=11;" parent="edge11" vertex="1" connectable="0"><mxGeometry x="430" y="510" as="geometry"/></mxCell><mxCell id="label70" value="1" style="edgeLabel;resizable=0;html=1;align=left;verticalAlign=top;strokeColor=default;fontSize=11;" parent="edge11" vertex="1" connectable="0"><mxGeometry x="580" y="520" as="geometry"/></mxCell><mxCell id="label71" value="model3D" style="edgeLabel;resizable=0;html=1;align=left;verticalAlign=top;strokeColor=default;fontSize=11;" parent="edge11" vertex="1" connectable="0"><mxGeometry x="390" y="480" as="geometry"/></mxCell><mxCell id="edge12" value="" style="html=1;rounded=1;edgeStyle=orthogonalEdgeStyle;dashed=1;startArrow=none;endArrow=openThin;endSize=12;strokeColor=#595959;exitX=0.037;exitY=0.000;exitDx=0;exitDy=0;entryX=0.706;entryY=1.000;entryDx=0;entryDy=0;fontSize=11;" parent="1" source="node6" target="node0" edge="1"><mxGeometry width="50" height="50" relative="1" as="geometry"><Array as="points"/></mxGeometry></mxCell><mxCell id="label74" value="«create»" style="edgeLabel;resizable=0;html=1;align=left;verticalAlign=top;strokeColor=default;fontSize=11;" parent="edge12" vertex="1" connectable="0"><mxGeometry x="300" y="170" as="geometry"/></mxCell><mxCell id="edge26" value="" style="html=1;rounded=1;edgeStyle=orthogonalEdgeStyle;dashed=0;startArrow=diamondThin;endArrow=openThin;endSize=12;strokeColor=#595959;exitX=0.285;exitY=0.000;exitDx=0;exitDy=0;entryX=0.962;entryY=1.000;entryDx=0;entryDy=0;fontSize=11;startFill=1;" parent="1" source="node6" target="node0" edge="1"><mxGeometry width="50" height="50" relative="1" as="geometry"><Array as="points"/></mxGeometry></mxCell><mxCell id="label156" value="1" style="edgeLabel;resizable=0;html=1;align=left;verticalAlign=top;strokeColor=default;fontSize=11;" parent="edge26" vertex="1" connectable="0"><mxGeometry x="440" y="220" as="geometry"/></mxCell><mxCell id="label160" value="1" style="edgeLabel;resizable=0;html=1;align=left;verticalAlign=top;strokeColor=default;fontSize=11;" parent="edge26" vertex="1" connectable="0"><mxGeometry x="440" y="100" as="geometry"/></mxCell><mxCell id="label161" value="render" style="edgeLabel;resizable=0;html=1;align=left;verticalAlign=top;strokeColor=default;fontSize=11;" parent="edge26" vertex="1" connectable="0"><mxGeometry x="460" y="100" as="geometry"/></mxCell><mxCell id="edge2" value="" style="html=1;rounded=1;edgeStyle=orthogonalEdgeStyle;dashed=1;startArrow=none;endArrow=block;endSize=12;strokeColor=#008200;exitX=0.002;exitY=0.589;exitDx=0;exitDy=0;fontSize=11;exitPerimeter=0;entryX=0.998;entryY=0.098;entryDx=0;entryDy=0;entryPerimeter=0;" parent="1" source="node6" target="node2" edge="1"><mxGeometry width="50" height="50" relative="1" as="geometry"><Array as="points"><mxPoint x="350" y="374"/></Array><mxPoint x="310" y="360" as="targetPoint"/></mxGeometry></mxCell><mxCell id="edge8" value="" style="html=1;rounded=1;edgeStyle=orthogonalEdgeStyle;dashed=0;startArrow=diamondThin;endArrow=openThin;endSize=12;strokeColor=#595959;exitX=0.447;exitY=-0.001;exitDx=0;exitDy=0;entryX=1.002;entryY=0.472;entryDx=0;entryDy=0;entryPerimeter=0;fontSize=11;startFill=1;exitPerimeter=0;" parent="1" source="node7" target="node9" edge="1"><mxGeometry width="50" height="50" relative="1" as="geometry"><Array as="points"><mxPoint x="-293" y="-57"/></Array></mxGeometry></mxCell><mxCell id="label48" value="1" style="edgeLabel;resizable=0;html=1;align=left;verticalAlign=top;strokeColor=default;fontSize=11;" parent="edge8" vertex="1" connectable="0"><mxGeometry x="-305" y="280" as="geometry"/></mxCell><mxCell id="label52" value="1" style="edgeLabel;resizable=0;html=1;align=left;verticalAlign=top;strokeColor=default;fontSize=11;" parent="edge8" vertex="1" connectable="0"><mxGeometry x="-759" y="437" as="geometry"/></mxCell><mxCell id="label53" value="buttonCreateModel" style="edgeLabel;resizable=0;html=1;align=left;verticalAlign=top;strokeColor=default;fontSize=11;" parent="edge8" vertex="1" connectable="0"><mxGeometry x="-530" y="-80" as="geometry"/></mxCell><mxCell id="edge14" value="" style="html=1;rounded=1;edgeStyle=orthogonalEdgeStyle;dashed=1;startArrow=none;endArrow=openThin;endSize=12;strokeColor=#595959;exitX=0.414;exitY=0.000;exitDx=0;exitDy=0;fontSize=11;entryX=1.003;entryY=0.662;entryDx=0;entryDy=0;entryPerimeter=0;" parent="1" source="node7" target="node9" edge="1"><mxGeometry width="50" height="50" relative="1" as="geometry"><Array as="points"><mxPoint x="-309" y="306"/><mxPoint x="-309" y="-41"/></Array><mxPoint x="-550" y="-40" as="targetPoint"/></mxGeometry></mxCell><mxCell id="label86" value="«create»" style="edgeLabel;resizable=0;html=1;align=left;verticalAlign=top;strokeColor=default;fontSize=11;" parent="edge14" vertex="1" connectable="0"><mxGeometry x="-514" y="-42" as="geometry"/></mxCell><mxCell id="edge13" value="" style="html=1;rounded=1;edgeStyle=orthogonalEdgeStyle;dashed=0;startArrow=diamondThin;endArrow=openThin;endSize=12;strokeColor=#595959;exitX=0.186;exitY=0;exitDx=0;exitDy=0;fontSize=11;startFill=1;exitPerimeter=0;" parent="1" source="node7" edge="1"><mxGeometry width="50" height="50" relative="1" as="geometry"><Array as="points"><mxPoint x="-385" y="246"/></Array><mxPoint x="-564" y="246" as="targetPoint"/></mxGeometry></mxCell><mxCell id="label78" value="1" style="edgeLabel;resizable=0;html=1;align=left;verticalAlign=top;strokeColor=default;fontSize=11;" parent="edge13" vertex="1" connectable="0"><mxGeometry x="-400" y="280" as="geometry"/></mxCell><mxCell id="label82" value="1" style="edgeLabel;resizable=0;html=1;align=left;verticalAlign=top;strokeColor=default;fontSize=11;" parent="edge13" vertex="1" connectable="0"><mxGeometry x="-559" y="247" as="geometry"/></mxCell><mxCell id="label83" value="buttonEditModel" style="edgeLabel;resizable=0;html=1;align=left;verticalAlign=top;strokeColor=default;fontSize=11;" parent="edge13" vertex="1" connectable="0"><mxGeometry x="-556" y="189" as="geometry"/></mxCell><mxCell id="edge15" value="" style="html=1;rounded=1;edgeStyle=orthogonalEdgeStyle;dashed=1;startArrow=none;endArrow=openThin;endSize=12;strokeColor=#595959;exitX=0.253;exitY=0.005;exitDx=0;exitDy=0;fontSize=11;" parent="1" source="node7" edge="1"><mxGeometry width="50" height="50" relative="1" as="geometry"><Array as="points"><mxPoint x="-366" y="231"/></Array><mxPoint x="-564" y="231" as="targetPoint"/></mxGeometry></mxCell><mxCell id="label92" value="«create»" style="edgeLabel;resizable=0;html=1;align=left;verticalAlign=top;strokeColor=default;fontSize=11;" parent="edge15" vertex="1" connectable="0"><mxGeometry x="-500" y="210" as="geometry"/></mxCell><mxCell id="edge5" value="" style="html=1;rounded=1;edgeStyle=orthogonalEdgeStyle;dashed=1;startArrow=none;endArrow=openThin;endSize=12;strokeColor=#595959;exitX=0.371;exitY=0.000;exitDx=0;exitDy=0;entryX=1;entryY=0.25;entryDx=0;entryDy=0;fontSize=11;" parent="1" source="node7" target="node5" edge="1"><mxGeometry width="50" height="50" relative="1" as="geometry"><Array as="points"><mxPoint x="-324" y="69"/></Array></mxGeometry></mxCell><mxCell id="label32" value="«create»" style="edgeLabel;resizable=0;html=1;align=left;verticalAlign=top;strokeColor=default;fontSize=11;" parent="edge5" vertex="1" connectable="0"><mxGeometry x="-490" y="40" as="geometry"/></mxCell><mxCell id="edge24" value="" style="html=1;rounded=1;edgeStyle=orthogonalEdgeStyle;dashed=0;startArrow=diamondThin;endArrow=openThin;endSize=12;strokeColor=#595959;exitX=0.317;exitY=0.000;exitDx=0;exitDy=0;entryX=1.000;entryY=0.500;entryDx=0;entryDy=0;fontSize=11;startFill=1;" parent="1" source="node7" target="node5" edge="1"><mxGeometry width="50" height="50" relative="1" as="geometry"><Array as="points"><mxPoint x="-339" y="90"/><mxPoint x="-344" y="90"/></Array></mxGeometry></mxCell><mxCell id="label144" value="1" style="edgeLabel;resizable=0;html=1;align=left;verticalAlign=top;strokeColor=default;fontSize=11;" parent="edge24" vertex="1" connectable="0"><mxGeometry x="-358" y="282" as="geometry"/></mxCell><mxCell id="label148" value="1" style="edgeLabel;resizable=0;html=1;align=left;verticalAlign=top;strokeColor=default;fontSize=11;" parent="edge24" vertex="1" connectable="0"><mxGeometry x="-510" y="87" as="geometry"/></mxCell><mxCell id="label149" value="buttonLoadModel" style="edgeLabel;resizable=0;html=1;align=left;verticalAlign=top;strokeColor=default;fontSize=11;" parent="edge24" vertex="1" connectable="0"><mxGeometry x="-500" y="100" as="geometry"/></mxCell><mxCell id="edge3" value="" style="html=1;rounded=1;edgeStyle=orthogonalEdgeStyle;dashed=0;startArrow=diamondThin;endArrow=openThin;endSize=12;strokeColor=#595959;exitX=0.000;exitY=0.715;exitDx=0;exitDy=0;entryX=1.002;entryY=0.65;entryDx=0;entryDy=0;entryPerimeter=0;fontSize=11;startFill=1;" parent="1" source="node7" target="node16" edge="1"><mxGeometry width="50" height="50" relative="1" as="geometry"><Array as="points"/></mxGeometry></mxCell><mxCell id="label18" value="1" style="edgeLabel;resizable=0;html=1;align=left;verticalAlign=top;strokeColor=default;fontSize=11;" parent="edge3" vertex="1" connectable="0"><mxGeometry x="-470" y="531" as="geometry"/></mxCell><mxCell id="label22" value="1" style="edgeLabel;resizable=0;html=1;align=left;verticalAlign=top;strokeColor=default;fontSize=11;" parent="edge3" vertex="1" connectable="0"><mxGeometry x="-520" y="531" as="geometry"/></mxCell><mxCell id="label23" value="buttonSaveConvertedModel" style="edgeLabel;resizable=0;html=1;align=left;verticalAlign=top;strokeColor=default;fontSize=11;" parent="edge3" vertex="1" connectable="0"><mxGeometry x="-609" y="569" as="geometry"/></mxCell><mxCell id="edge18" value="" style="html=1;rounded=1;edgeStyle=orthogonalEdgeStyle;dashed=1;startArrow=none;endArrow=openThin;endSize=12;strokeColor=#595959;exitX=0.000;exitY=0.669;exitDx=0;exitDy=0;entryX=1.003;entryY=0.467;entryDx=0;entryDy=0;entryPerimeter=0;fontSize=11;" parent="1" source="node7" target="node16" edge="1"><mxGeometry width="50" height="50" relative="1" as="geometry"><Array as="points"/></mxGeometry></mxCell><mxCell id="label110" value="«create»" style="edgeLabel;resizable=0;html=1;align=left;verticalAlign=top;strokeColor=default;fontSize=11;" parent="edge18" vertex="1" connectable="0"><mxGeometry x="-513" y="534" as="geometry"/></mxCell><mxCell id="edge10" value="" style="html=1;rounded=1;edgeStyle=orthogonalEdgeStyle;dashed=1;startArrow=none;endArrow=openThin;endSize=12;strokeColor=#595959;exitX=0.000;exitY=0.265;exitDx=0;exitDy=0;entryX=1.007;entryY=0.65;entryDx=0;entryDy=0;entryPerimeter=0;fontSize=11;" parent="1" source="node7" target="node1" edge="1"><mxGeometry width="50" height="50" relative="1" as="geometry"><Array as="points"/></mxGeometry></mxCell><mxCell id="label62" value="«create»" style="edgeLabel;resizable=0;html=1;align=left;verticalAlign=top;strokeColor=default;fontSize=11;" parent="edge10" vertex="1" connectable="0"><mxGeometry x="-519" y="366" as="geometry"/></mxCell><mxCell id="edge30" value="" style="html=1;rounded=1;edgeStyle=orthogonalEdgeStyle;dashed=0;startArrow=diamondThin;endArrow=openThin;endSize=12;strokeColor=#595959;exitX=0.000;exitY=0.218;exitDx=0;exitDy=0;entryX=1.002;entryY=0.463;entryDx=0;entryDy=0;entryPerimeter=0;fontSize=11;startFill=1;" parent="1" source="node7" target="node1" edge="1"><mxGeometry width="50" height="50" relative="1" as="geometry"><Array as="points"/></mxGeometry></mxCell><mxCell id="label180" value="1" style="edgeLabel;resizable=0;html=1;align=left;verticalAlign=top;strokeColor=default;fontSize=11;" parent="edge30" vertex="1" connectable="0"><mxGeometry x="-470" y="350" as="geometry"/></mxCell><mxCell id="label184" value="1" style="edgeLabel;resizable=0;html=1;align=left;verticalAlign=top;strokeColor=default;fontSize=11;" parent="edge30" vertex="1" connectable="0"><mxGeometry x="-522" y="350" as="geometry"/></mxCell><mxCell id="label185" value="buttonSaveModel" style="edgeLabel;resizable=0;html=1;align=left;verticalAlign=top;strokeColor=default;fontSize=11;" parent="edge30" vertex="1" connectable="0"><mxGeometry x="-560" y="420" as="geometry"/></mxCell><mxCell id="edge31" value="" style="html=1;rounded=1;edgeStyle=orthogonalEdgeStyle;dashed=1;startArrow=none;endArrow=openThin;endSize=12;strokeColor=#595959;entryX=0.002;entryY=0.383;entryDx=0;entryDy=0;fontSize=11;entryPerimeter=0;" parent="1" target="node6" edge="1"><mxGeometry width="50" height="50" relative="1" as="geometry"><Array as="points"><mxPoint x="-102" y="330"/></Array><mxPoint x="-102" y="330" as="sourcePoint"/></mxGeometry></mxCell><mxCell id="label188" value="«create»" style="edgeLabel;resizable=0;html=1;align=left;verticalAlign=top;strokeColor=default;fontSize=11;" parent="edge31" vertex="1" connectable="0"><mxGeometry x="270" y="306" as="geometry"/></mxCell><mxCell id="edge19" value="" style="html=1;rounded=1;edgeStyle=orthogonalEdgeStyle;dashed=0;startArrow=diamondThin;endArrow=openThin;endSize=12;strokeColor=#595959;exitX=0.488;exitY=0.999;exitDx=0;exitDy=0;entryX=1;entryY=0.473;entryDx=0;entryDy=0;entryPerimeter=0;fontSize=11;startFill=1;exitPerimeter=0;" parent="1" source="node7" target="node10" edge="1"><mxGeometry width="50" height="50" relative="1" as="geometry"><Array as="points"><mxPoint x="-279" y="664"/></Array></mxGeometry></mxCell><mxCell id="label114" value="1" style="edgeLabel;resizable=0;html=1;align=left;verticalAlign=top;strokeColor=default;fontSize=11;" parent="edge19" vertex="1" connectable="0"><mxGeometry x="-344" y="643" as="geometry"/></mxCell><mxCell id="label118" value="1" style="edgeLabel;resizable=0;html=1;align=left;verticalAlign=top;strokeColor=default;fontSize=11;" parent="edge19" vertex="1" connectable="0"><mxGeometry x="-599" y="643" as="geometry"/></mxCell><mxCell id="label119" value="frameEditModel" style="edgeLabel;resizable=0;html=1;align=left;verticalAlign=top;strokeColor=default;fontSize=11;" parent="edge19" vertex="1" connectable="0"><mxGeometry x="-470" y="643" as="geometry"/></mxCell><mxCell id="edge27" value="" style="html=1;rounded=1;edgeStyle=orthogonalEdgeStyle;dashed=1;startArrow=none;endArrow=openThin;endSize=12;strokeColor=#595959;exitX=0.543;exitY=1.000;exitDx=0;exitDy=0;fontSize=11;" parent="1" source="node7" edge="1"><mxGeometry width="50" height="50" relative="1" as="geometry"><Array as="points"><mxPoint x="-264" y="679"/></Array><mxPoint x="-603" y="679" as="targetPoint"/></mxGeometry></mxCell><mxCell id="label164" value="«create»" style="edgeLabel;resizable=0;html=1;align=left;verticalAlign=top;strokeColor=default;fontSize=11;" parent="edge27" vertex="1" connectable="0"><mxGeometry x="-330" y="680" as="geometry"/></mxCell><mxCell id="edge25" value="" style="html=1;rounded=1;edgeStyle=orthogonalEdgeStyle;dashed=1;startArrow=none;endArrow=openThin;endSize=12;strokeColor=#595959;exitX=0.586;exitY=1.000;exitDx=0;exitDy=0;entryX=1.002;entryY=0.467;entryDx=0;entryDy=0;entryPerimeter=0;fontSize=11;" parent="1" source="node7" target="node17" edge="1"><mxGeometry width="50" height="50" relative="1" as="geometry"><Array as="points"><mxPoint x="-249" y="808"/></Array></mxGeometry></mxCell><mxCell id="label152" value="«create»" style="edgeLabel;resizable=0;html=1;align=left;verticalAlign=top;strokeColor=default;fontSize=11;" parent="edge25" vertex="1" connectable="0"><mxGeometry x="-341" y="793" as="geometry"/></mxCell><mxCell id="edge28" value="" style="html=1;rounded=1;edgeStyle=orthogonalEdgeStyle;dashed=0;startArrow=diamondThin;endArrow=openThin;endSize=12;strokeColor=#595959;entryX=0.999;entryY=0.653;entryDx=0;entryDy=0;entryPerimeter=0;fontSize=11;startFill=1;" parent="1" target="node17" edge="1"><mxGeometry width="50" height="50" relative="1" as="geometry"><Array as="points"><mxPoint x="-234" y="823"/></Array><mxPoint x="-234" y="626" as="sourcePoint"/></mxGeometry></mxCell><mxCell id="label168" value="1" style="edgeLabel;resizable=0;html=1;align=left;verticalAlign=top;strokeColor=default;fontSize=11;" parent="edge28" vertex="1" connectable="0"><mxGeometry x="-245" y="631" as="geometry"/></mxCell><mxCell id="label172" value="1" style="edgeLabel;resizable=0;html=1;align=left;verticalAlign=top;strokeColor=default;fontSize=11;" parent="edge28" vertex="1" connectable="0"><mxGeometry x="-684" y="823" as="geometry"/></mxCell><mxCell id="label173" value="frameViewModel" style="edgeLabel;resizable=0;html=1;align=left;verticalAlign=top;strokeColor=default;fontSize=11;" parent="edge28" vertex="1" connectable="0"><mxGeometry x="-571" y="294" as="geometry"/></mxCell><mxCell id="edge17" value="" style="html=1;rounded=1;edgeStyle=orthogonalEdgeStyle;dashed=0;startArrow=diamondThin;endArrow=openThin;endSize=12;strokeColor=#595959;exitX=0.967;exitY=0;exitDx=0;exitDy=0;entryX=0.610;entryY=1.000;entryDx=0;entryDy=0;fontSize=11;exitPerimeter=0;startFill=1;" parent="1" source="node7" target="node8" edge="1"><mxGeometry width="50" height="50" relative="1" as="geometry"><Array as="points"/></mxGeometry></mxCell><mxCell id="label102" value="1" style="edgeLabel;resizable=0;html=1;align=left;verticalAlign=top;strokeColor=default;fontSize=11;" parent="edge17" vertex="1" connectable="0"><mxGeometry x="-128" y="278" as="geometry"/></mxCell><mxCell id="label106" value="1" style="edgeLabel;resizable=0;html=1;align=left;verticalAlign=top;strokeColor=default;fontSize=11;" parent="edge17" vertex="1" connectable="0"><mxGeometry x="-132" y="96" as="geometry"/></mxCell><mxCell id="label107" value="screen" style="edgeLabel;resizable=0;html=1;align=left;verticalAlign=top;strokeColor=default;fontSize=11;" parent="edge17" vertex="1" connectable="0"><mxGeometry x="-100" y="110" as="geometry"/></mxCell><mxCell id="edge20" value="" style="html=1;rounded=1;edgeStyle=orthogonalEdgeStyle;dashed=1;startArrow=none;endArrow=openThin;endSize=12;strokeColor=#595959;exitX=0.500;exitY=0.000;exitDx=0;exitDy=0;entryX=0.500;entryY=1.000;entryDx=0;entryDy=0;fontSize=11;" parent="1" source="node7" target="node8" edge="1"><mxGeometry width="50" height="50" relative="1" as="geometry"><Array as="points"><mxPoint x="-270" y="199"/><mxPoint x="-123" y="199"/></Array></mxGeometry></mxCell><mxCell id="label122" value="«create»" style="edgeLabel;resizable=0;html=1;align=left;verticalAlign=top;strokeColor=default;fontSize=11;" parent="edge20" vertex="1" connectable="0"><mxGeometry x="-191" y="170" as="geometry"/></mxCell><mxCell id="edge21" value="" style="html=1;rounded=1;edgeStyle=orthogonalEdgeStyle;dashed=1;startArrow=none;endArrow=openThin;endSize=12;strokeColor=#595959;entryX=1;entryY=0.25;entryDx=0;entryDy=0;fontSize=11;exitX=0.783;exitY=1;exitDx=0;exitDy=0;exitPerimeter=0;" parent="1" source="node7" target="node3" edge="1"><mxGeometry width="50" height="50" relative="1" as="geometry"><Array as="points"><mxPoint x="-180" y="630"/><mxPoint x="-180" y="877"/><mxPoint x="-20" y="877"/><mxPoint x="-20" y="1159"/></Array><mxPoint x="-180" y="630" as="sourcePoint"/></mxGeometry></mxCell><mxCell id="label128" value="«create»" style="edgeLabel;resizable=0;html=1;align=left;verticalAlign=top;strokeColor=default;fontSize=11;" parent="edge21" vertex="1" connectable="0"><mxGeometry x="-80" y="1123" as="geometry"/></mxCell><mxCell id="edge6" value="" style="html=1;rounded=1;edgeStyle=orthogonalEdgeStyle;dashed=0;startArrow=diamondThin;endArrow=openThin;endSize=12;strokeColor=#595959;entryX=0.000;entryY=0.111;entryDx=0;entryDy=0;fontSize=11;startFill=1;" parent="1" target="node2" edge="1"><mxGeometry width="50" height="50" relative="1" as="geometry"><Array as="points"/><mxPoint x="-100" y="376" as="sourcePoint"/></mxGeometry></mxCell><mxCell id="label36" value="1" style="edgeLabel;resizable=0;html=1;align=left;verticalAlign=top;strokeColor=default;fontSize=11;" parent="edge6" vertex="1" connectable="0"><mxGeometry x="-99" y="618" as="geometry"/></mxCell><mxCell id="label40" value="1" style="edgeLabel;resizable=0;html=1;align=left;verticalAlign=top;strokeColor=default;fontSize=11;" parent="edge6" vertex="1" connectable="0"><mxGeometry x="430" y="460" as="geometry"/></mxCell><mxCell id="label41" value="editModel" style="edgeLabel;resizable=0;html=1;align=left;verticalAlign=top;strokeColor=default;fontSize=11;" parent="edge6" vertex="1" connectable="0"><mxGeometry x="-80" y="350" as="geometry"/></mxCell><mxCell id="edge4" value="" style="html=1;rounded=1;edgeStyle=orthogonalEdgeStyle;dashed=0;startArrow=diamondThin;endArrow=openThin;endSize=12;strokeColor=#595959;exitX=0.671;exitY=1.000;exitDx=0;exitDy=0;entryX=0.582;entryY=0.001;entryDx=0;entryDy=0;fontSize=11;startFill=1;" parent="1" source="node7" target="node11" edge="1"><mxGeometry width="50" height="50" relative="1" as="geometry"><Array as="points"/></mxGeometry></mxCell><mxCell id="label24" value="1" style="edgeLabel;resizable=0;html=1;align=left;verticalAlign=top;strokeColor=default;fontSize=11;" parent="edge4" vertex="1" connectable="0"><mxGeometry x="-210" y="631" as="geometry"/></mxCell><mxCell id="label28" value="1" style="edgeLabel;resizable=0;html=1;align=left;verticalAlign=top;strokeColor=default;fontSize=11;" parent="edge4" vertex="1" connectable="0"><mxGeometry x="-234" y="940" as="geometry"/></mxCell><mxCell id="label29" value="storage" style="edgeLabel;resizable=0;html=1;align=left;verticalAlign=top;strokeColor=default;fontSize=11;" parent="edge4" vertex="1" connectable="0"><mxGeometry x="-210" y="660" as="geometry"/></mxCell><mxCell id="edge32" value="" style="html=1;rounded=1;edgeStyle=orthogonalEdgeStyle;dashed=1;startArrow=none;endArrow=openThin;endSize=12;strokeColor=#595959;exitX=0.500;exitY=1.000;exitDx=0;exitDy=0;entryX=0.500;entryY=1.000;entryDx=0;entryDy=0;fontSize=11;" parent="1" source="node0" target="node8" edge="1"><mxGeometry width="50" height="50" relative="1" as="geometry"><Array as="points"><mxPoint x="355" y="199"/><mxPoint x="-132" y="199"/></Array></mxGeometry></mxCell><mxCell id="label194" value="«create»" style="edgeLabel;resizable=0;html=1;align=left;verticalAlign=top;strokeColor=default;fontSize=11;" parent="edge32" vertex="1" connectable="0"><mxGeometry x="-80" y="200" as="geometry"/></mxCell><mxCell id="edge22" value="" style="html=1;rounded=1;edgeStyle=orthogonalEdgeStyle;dashed=0;startArrow=diamondThin;endArrow=openThin;endSize=12;strokeColor=#595959;exitX=1.000;exitY=0.773;exitDx=0;exitDy=0;fontSize=11;startFill=1;" parent="1" source="node3" edge="1"><mxGeometry width="50" height="50" relative="1" as="geometry"><Array as="points"><mxPoint x="379" y="1234"/></Array><mxPoint x="379" y="1210" as="targetPoint"/></mxGeometry></mxCell><mxCell id="label132" value="1" style="edgeLabel;resizable=0;html=1;align=left;verticalAlign=top;strokeColor=default;fontSize=11;" parent="edge22" vertex="1" connectable="0"><mxGeometry x="-80" y="1200" as="geometry"/></mxCell><mxCell id="label136" value="1" style="edgeLabel;resizable=0;html=1;align=left;verticalAlign=top;strokeColor=default;fontSize=11;" parent="edge22" vertex="1" connectable="0"><mxGeometry x="365" y="1207" as="geometry"/></mxCell><mxCell id="label137" value="convertedModel" style="edgeLabel;resizable=0;html=1;align=left;verticalAlign=top;strokeColor=default;fontSize=11;" parent="edge22" vertex="1" connectable="0"><mxGeometry x="-60" y="1239" as="geometry"/></mxCell><mxCell id="edge16" value="" style="html=1;rounded=1;edgeStyle=orthogonalEdgeStyle;dashed=1;startArrow=none;endArrow=openThin;endSize=12;strokeColor=#595959;exitX=1.000;exitY=0.391;exitDx=0;exitDy=0;fontSize=11;entryX=0;entryY=0.467;entryDx=0;entryDy=0;entryPerimeter=0;" parent="1" source="node3" target="node15" edge="1"><mxGeometry width="50" height="50" relative="1" as="geometry"><Array as="points"><mxPoint x="44" y="1179"/><mxPoint x="44" y="758"/></Array><mxPoint x="200" y="923" as="targetPoint"/></mxGeometry></mxCell><mxCell id="label98" value="«create»" style="edgeLabel;resizable=0;html=1;align=left;verticalAlign=top;strokeColor=default;fontSize=11;" parent="edge16" vertex="1" connectable="0"><mxGeometry x="-70" y="1156" as="geometry"/></mxCell><mxCell id="edge23" value="" style="html=1;rounded=1;edgeStyle=orthogonalEdgeStyle;dashed=1;startArrow=none;endArrow=openThin;endSize=12;strokeColor=#595959;exitX=1.000;exitY=0.496;exitDx=0;exitDy=0;fontSize=11;entryX=0.001;entryY=0.552;entryDx=0;entryDy=0;entryPerimeter=0;" parent="1" source="node3" target="node14" edge="1"><mxGeometry width="50" height="50" relative="1" as="geometry"><Array as="points"><mxPoint x="170" y="1194"/><mxPoint x="170" y="589"/></Array><mxPoint x="170" y="940" as="targetPoint"/></mxGeometry></mxCell><mxCell id="label140" value="«create»" style="edgeLabel;resizable=0;html=1;align=left;verticalAlign=top;strokeColor=default;fontSize=11;" parent="edge23" vertex="1" connectable="0"><mxGeometry x="340" y="550" as="geometry"/></mxCell><mxCell id="edge29" value="" style="html=1;rounded=1;edgeStyle=orthogonalEdgeStyle;dashed=0;startArrow=diamondThin;endArrow=openThin;endSize=12;strokeColor=#595959;exitX=1.000;exitY=0.669;exitDx=0;exitDy=0;fontSize=11;startFill=1;" parent="1" source="node3" edge="1"><mxGeometry width="50" height="50" relative="1" as="geometry"><Array as="points"><mxPoint x="275" y="1219"/></Array><mxPoint x="275" y="930" as="targetPoint"/></mxGeometry></mxCell><mxCell id="label174" value="1" style="edgeLabel;resizable=0;html=1;align=left;verticalAlign=top;strokeColor=default;fontSize=11;" parent="edge29" vertex="1" connectable="0"><mxGeometry x="-80" y="1230" as="geometry"/></mxCell><mxCell id="label178" value="1" style="edgeLabel;resizable=0;html=1;align=left;verticalAlign=top;strokeColor=default;fontSize=11;" parent="edge29" vertex="1" connectable="0"><mxGeometry x="287" y="930" as="geometry"/></mxCell><mxCell id="label179" value="converter" style="edgeLabel;resizable=0;html=1;align=left;verticalAlign=top;strokeColor=default;fontSize=11;" parent="edge29" vertex="1" connectable="0"><mxGeometry x="220" y="930" as="geometry"/></mxCell><mxCell id="edge0" value="" style="html=1;rounded=1;edgeStyle=orthogonalEdgeStyle;dashed=1;startArrow=none;endArrow=block;endSize=12;strokeColor=#008200;exitX=0.500;exitY=0.000;exitDx=0;exitDy=0;entryX=0.500;entryY=1.000;entryDx=0;entryDy=0;fontSize=11;" parent="1" source="node3" target="node11" edge="1"><mxGeometry width="50" height="50" relative="1" as="geometry"><Array as="points"/></mxGeometry></mxCell></root></mxGraphModel></diagram></mxfile>